<?xml version="1.0" encoding="UTF-8"?>
<svg version="1.1" xmlns="http://www.w3.org/2000/svg" width="512" height="512">
<path d="M0 0 C2.37438259 2.12539718 4.69159759 4.30003401 7.0078125 6.48828125 C8.33723198 7.61790358 9.67044968 8.74307437 11.0078125 9.86328125 C26.19716044 23.2335456 37.81748393 40.58647891 47.0078125 58.48828125 C47.31912109 59.08640625 47.63042969 59.68453125 47.95117188 60.30078125 C56.70540468 77.32393759 61.97491312 95.63783001 65.0078125 114.48828125 C65.1836084 115.5561084 65.3594043 116.62393555 65.54052734 117.72412109 C66.05348861 121.85621977 66.18760332 125.87691737 66.2109375 130.03515625 C66.21663757 130.84583557 66.22233765 131.65651489 66.22821045 132.49176025 C66.23761783 134.20624508 66.24417739 135.92074764 66.24804688 137.63525391 C66.2576294 140.18947497 66.28864076 142.74284648 66.3203125 145.296875 C66.42396776 161.13047939 64.42992612 176.36939503 59.8203125 191.55078125 C59.51988037 192.55681396 59.21944824 193.56284668 58.90991211 194.59936523 C56.02878941 203.93948026 52.34204718 212.73927354 48.0078125 221.48828125 C47.5425415 222.45121094 47.5425415 222.45121094 47.06787109 223.43359375 C39.61752859 238.75190768 29.71417188 252.16687672 18.0078125 264.48828125 C16.83447527 265.85759343 15.66727284 267.23219912 14.5078125 268.61328125 C8.21432318 275.83968781 0.79548041 281.94119936 -6.9921875 287.48828125 C-9.83797635 286.19832558 -11.85641553 284.86056743 -14.02563477 282.6184082 C-14.59045059 282.04053055 -15.15526642 281.46265289 -15.73719788 280.86726379 C-16.33825851 280.24333237 -16.93931915 279.61940094 -17.55859375 278.9765625 C-18.86233612 277.64749791 -20.16638269 276.31873167 -21.47070312 274.99023438 C-23.50620858 272.90543362 -25.53839041 270.81762072 -27.56469727 268.72387695 C-39.94981648 255.9531933 -51.92719221 244.76020753 -70.69213867 244.01733398 C-91.00678348 243.76752074 -106.59522567 256.14302923 -123.06640625 266.703125 C-129.07594451 270.55206502 -135.12353205 274.33824214 -141.1796875 278.11328125 C-147.66873201 282.16021224 -154.15484466 286.21110108 -160.61767578 290.29980469 C-162.1781553 291.28621514 -163.74028496 292.27002084 -165.30419922 293.25097656 C-169.07869168 295.62174562 -172.81664187 298.03040254 -176.51171875 300.5234375 C-177.23552734 301.00192139 -177.95933594 301.48040527 -178.70507812 301.97338867 C-180.06270913 302.87210882 -181.41001159 303.78671856 -182.74414062 304.7199707 C-185.7328514 306.67642798 -187.36490478 307.59351891 -190.94921875 306.9921875 C-192.45548828 306.24775391 -192.45548828 306.24775391 -193.9921875 305.48828125 C-194.88466187 305.06869141 -194.88466187 305.06869141 -195.79516602 304.640625 C-222.30072929 291.93343817 -244.4337218 272.93262231 -261.9921875 249.48828125 C-262.63027344 248.64523437 -263.26835937 247.8021875 -263.92578125 246.93359375 C-286.09996025 216.51451216 -297.20888908 179.14764229 -297.2421875 141.73828125 C-297.24286224 141.05431274 -297.24353699 140.37034424 -297.24423218 139.66564941 C-297.19628658 108.91414731 -289.42120751 80.53580969 -274.9921875 53.48828125 C-274.66992188 52.87710449 -274.34765625 52.26592773 -274.015625 51.63623047 C-266.56509307 37.61726719 -256.92117658 25.89877292 -245.9921875 14.48828125 C-245.51523438 13.98409668 -245.03828125 13.47991211 -244.546875 12.96044922 C-185.99279143 -48.70529855 -85.70419278 -57.78707686 0 0 Z M-125.80078125 39.14453125 C-129.5045059 43.33675675 -131.05650959 46.50236244 -131.30859375 52.15625 C-131.37143555 53.49526367 -131.37143555 53.49526367 -131.43554688 54.86132812 C-131.47486328 55.79009766 -131.51417969 56.71886719 -131.5546875 57.67578125 C-131.61946289 59.08633789 -131.61946289 59.08633789 -131.68554688 60.52539062 C-131.79157415 62.84620979 -131.89363779 65.1671345 -131.9921875 67.48828125 C-133.0440625 67.83439453 -133.0440625 67.83439453 -134.1171875 68.1875 C-140.30083061 70.31312732 -145.67040673 72.68532729 -150.9921875 76.48828125 C-152.508125 77.54015625 -152.508125 77.54015625 -154.0546875 78.61328125 C-162.06730147 85.59975664 -167.41364733 96.92710981 -168.3359375 107.38671875 C-168.87174471 121.97411323 -164.84739723 133.44446747 -154.8671875 144.23828125 C-142.88127452 155.67753941 -129.46404448 156.7907083 -113.77539062 156.96679688 C-112.60814453 156.99322266 -111.44089844 157.01964844 -110.23828125 157.046875 C-108.65551392 157.06705688 -108.65551392 157.06705688 -107.04077148 157.08764648 C-102.66363026 157.66287582 -99.27030678 159.20745982 -96.14453125 162.33984375 C-93.92685662 166.47449137 -94.40015137 170.9427594 -94.9921875 175.48828125 C-96.69046698 179.07353793 -97.73993296 180.8727579 -101.30410767 182.62466431 C-104.13600039 183.53448495 -106.3469962 183.73954493 -109.31396484 183.74365234 C-110.3520932 183.75061127 -111.39022156 183.75757019 -112.45980835 183.76473999 C-113.57135284 183.76374298 -114.68289734 183.76274597 -115.828125 183.76171875 C-118.19531723 183.78200702 -120.5625047 183.80285779 -122.9296875 183.82421875 C-126.65140818 183.84681631 -130.37294042 183.86329029 -134.09472656 183.86914062 C-137.69370349 183.87867434 -141.2918374 183.91246216 -144.890625 183.94921875 C-145.99812103 183.94417328 -147.10561707 183.93912781 -148.24667358 183.93392944 C-154.70861471 184.0159896 -158.76549722 184.5799401 -163.9921875 188.48828125 C-167.5508452 192.76741777 -168.65275962 196.79504301 -168.37890625 202.34765625 C-167.53874016 206.99827258 -164.82682279 209.73507379 -161.4296875 212.80078125 C-157.61936792 215.43869481 -154.75082622 215.60888348 -150.23046875 215.5859375 C-148.55307617 215.58110352 -148.55307617 215.58110352 -146.84179688 215.57617188 C-145.67455078 215.56779297 -144.50730469 215.55941406 -143.3046875 215.55078125 C-142.12583984 215.54626953 -140.94699219 215.54175781 -139.73242188 215.53710938 C-136.81895961 215.52531398 -133.90559887 215.50885395 -130.9921875 215.48828125 C-131.03859375 216.76703125 -131.085 218.04578125 -131.1328125 219.36328125 C-131.17035777 221.07159104 -131.20675495 222.77992633 -131.2421875 224.48828125 C-131.27570313 225.32746094 -131.30921875 226.16664063 -131.34375 227.03125 C-131.43657232 233.01828944 -130.43990374 237.51624124 -126.9921875 242.48828125 C-122.75146983 246.24709918 -118.60242901 247.74922272 -112.9921875 247.48828125 C-107.11187784 245.79395474 -104.42026446 243.3279193 -100.9921875 238.48828125 C-100.01174786 235.54696234 -99.87597548 233.6632646 -99.89453125 230.6015625 C-99.89775391 229.66376953 -99.90097656 228.72597656 -99.90429688 227.75976562 C-99.91267578 226.78330078 -99.92105469 225.80683594 -99.9296875 224.80078125 C-99.93419922 223.81271484 -99.93871094 222.82464844 -99.94335938 221.80664062 C-99.95514447 219.36712651 -99.97159739 216.92773436 -99.9921875 214.48828125 C-99.40630859 214.37363525 -98.82042969 214.25898926 -98.21679688 214.14086914 C-87.0584227 211.83298966 -78.03547762 206.58752234 -70.9921875 197.48828125 C-63.99785265 186.17430938 -60.40551583 174.81813671 -62.9921875 161.48828125 C-66.20502582 149.4692695 -73.10506458 138.34106766 -83.85546875 131.7265625 C-95.41055231 125.66271306 -105.77784182 125.15546564 -118.66210938 125.09765625 C-129.38154285 124.87420541 -129.38154285 124.87420541 -133.9921875 120.48828125 C-136.72404667 116.4931346 -136.66458448 112.16265541 -135.9921875 107.48828125 C-133.9871787 103.68567835 -132.56532488 101.87037284 -128.9921875 99.48828125 C-126.75582886 99.22999573 -126.75582886 99.22999573 -124.11279297 99.21704102 C-123.12101044 99.2068544 -122.12922791 99.19666779 -121.10739136 99.18617249 C-120.03554596 99.18403244 -118.96370056 99.1818924 -117.859375 99.1796875 C-115.58593509 99.15451397 -113.31249765 99.12911616 -111.0390625 99.10351562 C-107.45801512 99.07484961 -103.87701103 99.05083296 -100.29589844 99.03198242 C-96.83765528 99.01021893 -93.37993514 98.97075535 -89.921875 98.9296875 C-88.33232498 98.92951378 -88.33232498 98.92951378 -86.71066284 98.92933655 C-80.09656915 98.84204625 -72.56048862 98.68305555 -67.37081909 94.03663635 C-63.31112478 89.2931071 -62.63620136 86.09154583 -62.71484375 80.02734375 C-63.12595194 76.26367723 -64.4750511 74.27037938 -66.9921875 71.48828125 C-72.3288412 67.28708579 -76.63071984 66.35166448 -83.29296875 66.390625 C-84.26943359 66.39384766 -85.24589844 66.39707031 -86.25195312 66.40039062 C-87.76305664 66.41295898 -87.76305664 66.41295898 -89.3046875 66.42578125 C-90.33142578 66.43029297 -91.35816406 66.43480469 -92.41601562 66.43945312 C-94.94146632 66.45119941 -97.46679655 66.4676256 -99.9921875 66.48828125 C-99.97124023 65.91907959 -99.95029297 65.34987793 -99.92871094 64.76342773 C-99.84487756 62.15106309 -99.79331932 59.53898241 -99.7421875 56.92578125 C-99.70867187 56.03052734 -99.67515625 55.13527344 -99.640625 54.21289062 C-99.55031996 48.04957172 -100.36250023 44.5134981 -103.9921875 39.48828125 C-111.02088206 33.68196835 -118.84757606 32.77701721 -125.80078125 39.14453125 Z " fill="#21C55D" transform="translate(317.9921875,61.51171875)"/>
<path d="M0 0 C1.23834595 -0.0129007 1.23834595 -0.0129007 2.50170898 -0.02606201 C3.85526237 -0.03245193 3.85526237 -0.03245193 5.23616028 -0.03897095 C6.66594711 -0.05123718 6.66594711 -0.05123718 8.12461853 -0.06375122 C11.28394443 -0.08859395 14.44322538 -0.10511948 17.60261536 -0.11953735 C18.6821026 -0.12486103 19.76158985 -0.13018471 20.87378883 -0.13566971 C26.58881037 -0.16239791 32.3038101 -0.18177288 38.01887512 -0.19619751 C43.91585418 -0.21283386 49.81227314 -0.25760465 55.70904064 -0.30856895 C60.24817532 -0.34226064 64.78717743 -0.35377714 69.32642555 -0.35942459 C71.49969571 -0.36613292 73.67295727 -0.381344 75.84610558 -0.4053154 C78.89325159 -0.43700667 81.93889207 -0.43699726 84.98616028 -0.42959595 C86.32453194 -0.45420395 86.32453194 -0.45420395 87.68994141 -0.47930908 C93.95979754 -0.41719407 98.05591385 1.19790277 102.93464661 5.15390015 C106.6421803 9.15413386 109.17613846 12.79959584 109.20207214 18.33950806 C109.21060211 19.16644669 109.21913208 19.99338531 109.22792053 20.84538269 C109.22701416 21.74415634 109.22610779 22.64292999 109.22517395 23.56893921 C109.23524979 24.99894508 109.23524979 24.99894508 109.24552917 26.45783997 C109.26453755 29.61178797 109.26843511 32.76552341 109.27058411 35.91952515 C109.27701107 38.11424853 109.28373936 40.30897105 109.29075623 42.50369263 C109.30273682 47.10700465 109.30643634 51.7102416 109.30525208 56.31356812 C109.30504908 62.20261357 109.33232821 68.0911754 109.36679649 73.98010635 C109.38907401 78.51496577 109.39308931 83.04970908 109.39203262 87.58461761 C109.39438818 89.75507012 109.40320908 91.92552585 109.41869736 94.09592438 C109.43836987 97.13805094 109.43251345 100.17913841 109.42048645 103.22128296 C109.43172546 104.11195969 109.44296448 105.00263641 109.45454407 105.92030334 C109.38625654 112.74352237 107.78323768 118.2725038 102.89949036 123.2124939 C102.23046692 123.66753296 101.56144348 124.12257202 100.87214661 124.59140015 C100.20054504 125.06448608 99.52894348 125.53757202 98.83699036 126.0249939 C95.1113538 128.23589526 91.86922685 128.34511703 87.62214661 128.40390015 C86.51226379 128.4296814 85.40238098 128.45546265 84.25886536 128.48202515 C69.5441051 127.02956937 55.64920527 106.96569415 45.93464661 97.15390015 C42.54273484 98.62080063 40.35198009 100.49943869 37.76249695 103.1191864 C36.93844864 103.94771118 36.11440033 104.77623596 35.26538086 105.62986755 C34.3697493 106.54054489 33.47411774 107.45122223 32.55134583 108.38949585 C31.59209364 109.35750099 30.63235933 110.32502858 29.67218018 111.29211426 C27.606394 113.37438007 25.5436145 115.4595638 23.48298264 117.54693031 C20.21862771 120.85271414 16.94499305 124.14920143 13.66954041 127.44398499 C4.35689179 136.81415338 -4.94580091 146.19412621 -14.23332214 155.58920288 C-19.36383458 160.77896909 -24.50340122 165.95959367 -29.65288723 171.13053578 C-32.90518442 174.39740328 -36.14613131 177.67499281 -39.37895513 180.96112597 C-41.40247507 183.01257561 -43.43658209 185.05327399 -45.4737072 187.0912056 C-46.85197375 188.47614898 -48.21772014 189.87351787 -49.58291626 191.27134705 C-55.58246727 197.24248289 -61.70846747 202.0676802 -70.16691589 203.7828064 C-70.99965027 203.76089233 -71.83238464 203.73897827 -72.69035339 203.71640015 C-73.52824402 203.71768921 -74.36613464 203.71897827 -75.22941589 203.7203064 C-83.06500267 202.15534761 -88.32131505 197.4701176 -93.76652527 191.90682983 C-94.4894577 191.18448151 -95.21239014 190.46213318 -95.95722961 189.71789551 C-98.32580283 187.34655302 -100.67991976 184.96139632 -103.03410339 182.57577515 C-104.6808913 180.92152081 -106.32856913 179.26815195 -107.97709656 177.6156311 C-112.2997374 173.27776598 -116.61022726 168.928021 -120.91825867 164.57565308 C-125.32196435 160.13092601 -129.73710856 155.69759338 -134.15129089 151.26327515 C-142.80051596 142.57123569 -151.43694134 133.86659718 -160.06535339 125.15390015 C-163.50439362 126.49714057 -166.59036383 127.95456626 -169.74113464 129.8843689 C-170.63872498 130.43205933 -171.53631531 130.97974976 -172.46110535 131.54403687 C-173.4236322 132.13716675 -174.38615906 132.73029663 -175.37785339 133.34140015 C-176.39258728 133.9628894 -177.40732117 134.58437866 -178.45280457 135.22470093 C-186.62082658 140.23793827 -194.74973299 145.31341422 -202.86930847 150.40463257 C-210.24436034 155.0266013 -217.6479315 159.60028168 -225.06535339 164.15390015 C-233.42153545 169.28461702 -241.75633667 174.44714476 -250.06535339 179.65390015 C-260.61779111 186.26563329 -271.21690444 192.79938057 -281.82707214 199.31796265 C-287.41412775 202.75102419 -292.99190043 206.19881025 -298.56535339 209.65390015 C-305.22458852 213.78208713 -311.89319932 217.89461917 -318.5690155 221.99594116 C-328.40089741 228.0366761 -338.21744467 234.10061576 -348.00285339 240.21640015 C-348.95458435 240.81114136 -349.90631531 241.40588257 -350.8868866 242.01864624 C-351.80042908 242.59050659 -352.71397156 243.16236694 -353.65519714 243.7515564 C-354.54448914 244.30730347 -355.43378113 244.86305054 -356.35002136 245.43563843 C-358.23959657 246.63136134 -360.11811637 247.84466042 -361.98771667 249.07138062 C-362.94275085 249.695448 -363.89778503 250.31951538 -364.88175964 250.9624939 C-365.73326599 251.52637817 -366.58477234 252.09026245 -367.46208191 252.67123413 C-373.80726432 256.28506634 -379.90431552 256.9586256 -387.06535339 256.15390015 C-393.30475086 254.36662849 -397.50659143 250.48033664 -401.06535339 245.15390015 C-403.79555168 239.56940364 -404.14420308 232.9571867 -402.44816589 226.9781189 C-398.36374594 217.67070174 -388.95777211 212.58908956 -380.56535339 207.65390015 C-378.50854834 206.42349146 -376.45258456 205.19167558 -374.39738464 203.95858765 C-373.34760437 203.33049194 -372.2978241 202.70239624 -371.2162323 202.05526733 C-366.19095314 199.02281157 -361.22215886 195.90194631 -356.25285339 192.77890015 C-345.64618855 186.12642494 -334.99067568 179.55589596 -324.32316589 173.0015564 C-316.07263183 167.93178378 -307.84084033 162.83187516 -299.60978699 157.7305603 C-295.26258697 155.0368146 -290.91388162 152.34550098 -286.56535339 149.65390015 C-284.81534646 148.57057801 -283.06534645 147.48724469 -281.31535339 146.40390015 C-228.81535339 113.90390015 -228.81535339 113.90390015 -226.19108582 112.27938843 C-224.4386028 111.19449471 -222.68616148 110.10953362 -220.9337616 109.02450562 C-216.59708883 106.33949611 -212.25973111 103.65560723 -207.92082214 100.97421265 C-207.06891296 100.44738892 -206.21700378 99.92056519 -205.33927917 99.3777771 C-203.62080164 98.31544848 -201.90172962 97.2540809 -200.18205261 96.19369507 C-195.31675752 93.18823199 -190.47610111 90.14810596 -185.65519714 87.0718689 C-184.57858826 86.38850464 -183.50197937 85.70514038 -182.39274597 85.00106812 C-180.3059826 83.67522486 -178.22354636 82.34253862 -176.14616394 81.00204468 C-168.90851659 76.41536402 -162.88294804 73.25719561 -154.06535339 74.15390015 C-146.67314151 76.31626304 -141.7151028 79.64084135 -136.41252136 85.12557983 C-135.71855759 85.81866745 -135.02459381 86.51175507 -134.30960083 87.22584534 C-132.04437676 89.49521285 -129.80109518 91.78499976 -127.55754089 94.07577515 C-125.98131386 95.66320567 -124.40374721 97.24930705 -122.8249054 98.83413696 C-118.69175604 102.99009293 -114.57695113 107.16375322 -110.46580505 111.34146118 C-106.25999421 115.60886957 -102.03694791 119.85914687 -97.81535339 124.1109314 C-89.54846969 132.44198375 -81.3008793 140.79185628 -73.06535339 149.15390015 C-67.82063733 144.77008901 -62.93013317 140.15681206 -58.11051941 135.31259155 C-57.34871872 134.55093689 -56.58691803 133.78928223 -55.80203247 133.00454712 C-53.30539483 130.50721742 -50.81230977 128.00637328 -48.31925964 125.50546265 C-46.58070386 123.76504017 -44.84192595 122.02483954 -43.10293579 120.28485107 C-38.54202702 115.72013693 -33.98413026 111.15242688 -29.42686462 106.58407593 C-24.76977285 101.91672737 -20.10982437 97.2522329 -15.45011902 92.5874939 C-6.31907356 83.44574606 2.80888834 74.30092577 11.93464661 65.15390015 C10.14177989 61.28261541 7.66769538 58.66153796 4.62995911 55.72421265 C3.84937637 54.95498978 3.84937637 54.95498978 3.05302429 54.17022705 C0.83630795 51.98604662 -1.39201192 49.81384799 -3.61955261 47.64071655 C-5.24891421 46.04776527 -6.87206014 44.4486606 -8.49504089 42.84921265 C-8.99309235 42.36775787 -9.4911438 41.8863031 -10.00428772 41.39025879 C-16.02222687 35.45624149 -19.18914932 30.43821987 -19.37785339 21.96640015 C-19.30665141 16.1407836 -18.82375699 11.73477988 -15.06535339 7.15390015 C-10.4745705 2.94183375 -6.37802938 0.04957468 0 0 Z " fill="#21C45D" transform="translate(403.0653533935547,255.84609985351563)"/>
</svg>
